<mxfile host="app.diagrams.net" modified="2021-08-31T21:02:36.156Z" agent="5.0 (X11)" etag="2HeM2WL2RHpbqLWSFKum" version="15.0.4" type="github">
  <diagram id="R2lEEEUBdFMjLlhIrx00" name="Page-1">
    <mxGraphModel dx="1240" dy="726" grid="1" gridSize="10" guides="1" tooltips="1" connect="1" arrows="1" fold="1" page="1" pageScale="1" pageWidth="850" pageHeight="1100" background="#F1FAEE" math="0" shadow="0" extFonts="Permanent Marker^https://fonts.googleapis.com/css?family=Permanent+Marker">
      <root>
        <mxCell id="0" />
        <mxCell id="1" parent="0" />
        <mxCell id="Z47dNayCgZMBNh-aiT91-1" value="&lt;font style=&quot;font-size: 12px&quot;&gt;&lt;b&gt;Has&lt;/b&gt;&lt;/font&gt;" style="rhombus;whiteSpace=wrap;html=1;fillColor=#A8DADC;strokeColor=#457B9D;fontColor=#1D3557;fontFamily=fira code;fontSource=https%3A%2F%2Ffonts.googleapis.com%2Fcss%3Ffamily%3Dfira%2Bcode;" parent="1" vertex="1">
          <mxGeometry x="77" y="345" width="105" height="49" as="geometry" />
        </mxCell>
        <mxCell id="Z47dNayCgZMBNh-aiT91-5" value="{redefines}" style="endArrow=none;html=1;align=center;verticalAlign=top;endFill=0;labelBackgroundColor=none;strokeColor=#457B9D;fontColor=#1D3557;fontFamily=fira code;fontSource=https%3A%2F%2Ffonts.googleapis.com%2Fcss%3Ffamily%3Dfira%2Bcode;" parent="1" edge="1">
          <mxGeometry relative="1" as="geometry">
            <mxPoint x="77" y="271" as="sourcePoint" />
            <mxPoint x="237" y="271" as="targetPoint" />
          </mxGeometry>
        </mxCell>
        <mxCell id="Z47dNayCgZMBNh-aiT91-6" value="end1" style="resizable=0;html=1;align=left;verticalAlign=bottom;labelBackgroundColor=none;fillColor=#A8DADC;strokeColor=#457B9D;fontColor=#1D3557;fontFamily=fira code;fontSource=https%3A%2F%2Ffonts.googleapis.com%2Fcss%3Ffamily%3Dfira%2Bcode;" parent="Z47dNayCgZMBNh-aiT91-5" connectable="0" vertex="1">
          <mxGeometry x="-1" relative="1" as="geometry" />
        </mxCell>
        <mxCell id="Z47dNayCgZMBNh-aiT91-7" value="0..1" style="resizable=0;html=1;align=left;verticalAlign=top;labelBackgroundColor=none;fillColor=#A8DADC;strokeColor=#457B9D;fontColor=#1D3557;fontFamily=fira code;fontSource=https%3A%2F%2Ffonts.googleapis.com%2Fcss%3Ffamily%3Dfira%2Bcode;" parent="Z47dNayCgZMBNh-aiT91-5" connectable="0" vertex="1">
          <mxGeometry x="-1" relative="1" as="geometry" />
        </mxCell>
        <mxCell id="Z47dNayCgZMBNh-aiT91-8" value="Association1" style="resizable=0;html=1;align=right;verticalAlign=bottom;labelBackgroundColor=none;fillColor=#A8DADC;strokeColor=#457B9D;fontColor=#1D3557;fontFamily=fira code;fontSource=https%3A%2F%2Ffonts.googleapis.com%2Fcss%3Ffamily%3Dfira%2Bcode;" parent="Z47dNayCgZMBNh-aiT91-5" connectable="0" vertex="1">
          <mxGeometry x="1" relative="1" as="geometry" />
        </mxCell>
        <mxCell id="Z47dNayCgZMBNh-aiT91-9" value="0..N" style="resizable=0;html=1;align=right;verticalAlign=top;labelBackgroundColor=none;fillColor=#A8DADC;strokeColor=#457B9D;fontColor=#1D3557;fontFamily=fira code;fontSource=https%3A%2F%2Ffonts.googleapis.com%2Fcss%3Ffamily%3Dfira%2Bcode;" parent="Z47dNayCgZMBNh-aiT91-5" connectable="0" vertex="1">
          <mxGeometry x="1" relative="1" as="geometry" />
        </mxCell>
        <mxCell id="Z47dNayCgZMBNh-aiT91-10" value="" style="endArrow=none;html=1;align=center;verticalAlign=top;endFill=0;labelBackgroundColor=none;strokeColor=#457B9D;fontColor=#1D3557;fontFamily=fira code;fontSource=https%3A%2F%2Ffonts.googleapis.com%2Fcss%3Ffamily%3Dfira%2Bcode;" parent="1" edge="1">
          <mxGeometry relative="1" as="geometry">
            <mxPoint x="77" y="311" as="sourcePoint" />
            <mxPoint x="237" y="311" as="targetPoint" />
          </mxGeometry>
        </mxCell>
        <mxCell id="Z47dNayCgZMBNh-aiT91-11" value="end1" style="resizable=0;html=1;align=left;verticalAlign=bottom;labelBackgroundColor=none;fillColor=#A8DADC;strokeColor=#457B9D;fontColor=#1D3557;fontFamily=fira code;fontSource=https%3A%2F%2Ffonts.googleapis.com%2Fcss%3Ffamily%3Dfira%2Bcode;" parent="Z47dNayCgZMBNh-aiT91-10" connectable="0" vertex="1">
          <mxGeometry x="-1" relative="1" as="geometry" />
        </mxCell>
        <mxCell id="Z47dNayCgZMBNh-aiT91-12" value="0..1" style="resizable=0;html=1;align=left;verticalAlign=top;labelBackgroundColor=none;fillColor=#A8DADC;strokeColor=#457B9D;fontColor=#1D3557;fontFamily=fira code;fontSource=https%3A%2F%2Ffonts.googleapis.com%2Fcss%3Ffamily%3Dfira%2Bcode;" parent="Z47dNayCgZMBNh-aiT91-10" connectable="0" vertex="1">
          <mxGeometry x="-1" relative="1" as="geometry" />
        </mxCell>
        <mxCell id="Z47dNayCgZMBNh-aiT91-13" value="Connector1" style="resizable=0;html=1;align=right;verticalAlign=bottom;labelBackgroundColor=none;fillColor=#A8DADC;strokeColor=#457B9D;fontColor=#1D3557;fontFamily=fira code;fontSource=https%3A%2F%2Ffonts.googleapis.com%2Fcss%3Ffamily%3Dfira%2Bcode;" parent="Z47dNayCgZMBNh-aiT91-10" connectable="0" vertex="1">
          <mxGeometry x="1" relative="1" as="geometry" />
        </mxCell>
        <mxCell id="Z47dNayCgZMBNh-aiT91-71" value="&lt;font style=&quot;font-size: 14px&quot;&gt;Inventory&lt;/font&gt;" style="rounded=0;whiteSpace=wrap;html=1;sketch=0;fontColor=#1D3557;strokeColor=#457B9D;fillColor=#A8DADC;fontStyle=1;fontFamily=fira code;fontSource=https%3A%2F%2Ffonts.googleapis.com%2Fcss%3Ffamily%3Dfira%2Bcode;" parent="1" vertex="1">
          <mxGeometry x="537" y="250" width="130" height="73" as="geometry" />
        </mxCell>
        <mxCell id="Z47dNayCgZMBNh-aiT91-77" value="" style="group" parent="1" vertex="1" connectable="0">
          <mxGeometry x="92.00371134020622" y="219" width="199.99628865979378" height="20" as="geometry" />
        </mxCell>
        <mxCell id="Z47dNayCgZMBNh-aiT91-73" value="" style="endArrow=circle;html=1;rounded=1;align=center;verticalAlign=top;endFill=1;labelBackgroundColor=none;endSize=6;startArrow=none;startFill=0;fontColor=#1D3557;strokeColor=#666666;fillColor=#f5f5f5;strokeWidth=1;startSize=7;shadow=1;fontFamily=fira code;fontSource=https%3A%2F%2Ffonts.googleapis.com%2Fcss%3Ffamily%3Dfira%2Bcode;" parent="Z47dNayCgZMBNh-aiT91-77" edge="1">
          <mxGeometry relative="1" as="geometry">
            <mxPoint x="199.99628865979378" y="9.5" as="sourcePoint" />
            <mxPoint x="49.99628865979378" y="9.5" as="targetPoint" />
            <Array as="points" />
          </mxGeometry>
        </mxCell>
        <mxCell id="Z47dNayCgZMBNh-aiT91-74" value="&lt;div style=&quot;font-size: 14px;&quot;&gt;prod_id&lt;/div&gt;" style="text;html=1;strokeColor=none;fillColor=none;align=center;verticalAlign=middle;whiteSpace=wrap;rounded=0;sketch=0;fontColor=#1D3557;fontStyle=1;fontSize=14;fontFamily=fira code;fontSource=https%3A%2F%2Ffonts.googleapis.com%2Fcss%3Ffamily%3Dfira%2Bcode;" parent="Z47dNayCgZMBNh-aiT91-77" vertex="1">
          <mxGeometry width="35.876288659793815" height="20" as="geometry" />
        </mxCell>
        <mxCell id="Z47dNayCgZMBNh-aiT91-79" value="&lt;font style=&quot;font-size: 12px&quot;&gt;&lt;b&gt;Makes&lt;/b&gt;&lt;/font&gt;" style="rhombus;whiteSpace=wrap;html=1;fillColor=#A8DADC;strokeColor=#457B9D;fontColor=#1D3557;fontFamily=fira code;fontSource=https%3A%2F%2Ffonts.googleapis.com%2Fcss%3Ffamily%3Dfira%2Bcode;" parent="1" vertex="1">
          <mxGeometry x="247" y="413" width="110" height="47" as="geometry" />
        </mxCell>
        <mxCell id="Z47dNayCgZMBNh-aiT91-96" value="{redefines}" style="endArrow=none;html=1;align=center;verticalAlign=top;endFill=0;labelBackgroundColor=none;strokeColor=#457B9D;fontColor=#1D3557;fontFamily=fira code;fontSource=https%3A%2F%2Ffonts.googleapis.com%2Fcss%3Ffamily%3Dfira%2Bcode;exitX=1;exitY=0.5;exitDx=0;exitDy=0;" parent="1" source="Z47dNayCgZMBNh-aiT91-1" edge="1">
          <mxGeometry relative="1" as="geometry">
            <mxPoint x="227" y="360" as="sourcePoint" />
            <mxPoint x="357" y="369" as="targetPoint" />
          </mxGeometry>
        </mxCell>
        <mxCell id="Z47dNayCgZMBNh-aiT91-97" value="end1" style="resizable=0;html=1;align=left;verticalAlign=bottom;labelBackgroundColor=none;fillColor=#A8DADC;strokeColor=#457B9D;fontColor=#1D3557;fontFamily=fira code;fontSource=https%3A%2F%2Ffonts.googleapis.com%2Fcss%3Ffamily%3Dfira%2Bcode;" parent="Z47dNayCgZMBNh-aiT91-96" connectable="0" vertex="1">
          <mxGeometry x="-1" relative="1" as="geometry" />
        </mxCell>
        <mxCell id="Z47dNayCgZMBNh-aiT91-98" value="0..1" style="resizable=0;html=1;align=left;verticalAlign=top;labelBackgroundColor=none;fillColor=#A8DADC;strokeColor=#457B9D;fontColor=#1D3557;fontFamily=fira code;fontSource=https%3A%2F%2Ffonts.googleapis.com%2Fcss%3Ffamily%3Dfira%2Bcode;" parent="Z47dNayCgZMBNh-aiT91-96" connectable="0" vertex="1">
          <mxGeometry x="-1" relative="1" as="geometry" />
        </mxCell>
        <mxCell id="Z47dNayCgZMBNh-aiT91-99" value="Association1" style="resizable=0;html=1;align=right;verticalAlign=bottom;labelBackgroundColor=none;fillColor=#A8DADC;strokeColor=#457B9D;fontColor=#1D3557;fontFamily=fira code;fontSource=https%3A%2F%2Ffonts.googleapis.com%2Fcss%3Ffamily%3Dfira%2Bcode;" parent="Z47dNayCgZMBNh-aiT91-96" connectable="0" vertex="1">
          <mxGeometry x="1" relative="1" as="geometry" />
        </mxCell>
        <mxCell id="Z47dNayCgZMBNh-aiT91-100" value="0..N" style="resizable=0;html=1;align=right;verticalAlign=top;labelBackgroundColor=none;fillColor=#A8DADC;strokeColor=#457B9D;fontColor=#1D3557;fontFamily=fira code;fontSource=https%3A%2F%2Ffonts.googleapis.com%2Fcss%3Ffamily%3Dfira%2Bcode;" parent="Z47dNayCgZMBNh-aiT91-96" connectable="0" vertex="1">
          <mxGeometry x="1" relative="1" as="geometry" />
        </mxCell>
        <mxCell id="Z47dNayCgZMBNh-aiT91-101" value="{redefines}" style="endArrow=none;html=1;align=center;verticalAlign=top;endFill=0;labelBackgroundColor=none;strokeColor=#457B9D;fontColor=#1D3557;fontFamily=fira code;fontSource=https%3A%2F%2Ffonts.googleapis.com%2Fcss%3Ffamily%3Dfira%2Bcode;entryX=0;entryY=0.5;entryDx=0;entryDy=0;" parent="1" target="Z47dNayCgZMBNh-aiT91-79" edge="1">
          <mxGeometry relative="1" as="geometry">
            <mxPoint x="81" y="440" as="sourcePoint" />
            <mxPoint x="221" y="439.5" as="targetPoint" />
          </mxGeometry>
        </mxCell>
        <mxCell id="Z47dNayCgZMBNh-aiT91-102" value="end1" style="resizable=0;html=1;align=left;verticalAlign=bottom;labelBackgroundColor=none;fillColor=#A8DADC;strokeColor=#457B9D;fontColor=#1D3557;fontFamily=fira code;fontSource=https%3A%2F%2Ffonts.googleapis.com%2Fcss%3Ffamily%3Dfira%2Bcode;" parent="Z47dNayCgZMBNh-aiT91-101" connectable="0" vertex="1">
          <mxGeometry x="-1" relative="1" as="geometry" />
        </mxCell>
        <mxCell id="Z47dNayCgZMBNh-aiT91-103" value="0..1" style="resizable=0;html=1;align=left;verticalAlign=top;labelBackgroundColor=none;fillColor=#A8DADC;strokeColor=#457B9D;fontColor=#1D3557;fontFamily=fira code;fontSource=https%3A%2F%2Ffonts.googleapis.com%2Fcss%3Ffamily%3Dfira%2Bcode;" parent="Z47dNayCgZMBNh-aiT91-101" connectable="0" vertex="1">
          <mxGeometry x="-1" relative="1" as="geometry" />
        </mxCell>
        <mxCell id="Z47dNayCgZMBNh-aiT91-104" value="Association1" style="resizable=0;html=1;align=right;verticalAlign=bottom;labelBackgroundColor=none;fillColor=#A8DADC;strokeColor=#457B9D;fontColor=#1D3557;fontFamily=fira code;fontSource=https%3A%2F%2Ffonts.googleapis.com%2Fcss%3Ffamily%3Dfira%2Bcode;" parent="Z47dNayCgZMBNh-aiT91-101" connectable="0" vertex="1">
          <mxGeometry x="1" relative="1" as="geometry" />
        </mxCell>
        <mxCell id="Z47dNayCgZMBNh-aiT91-105" value="0..N" style="resizable=0;html=1;align=right;verticalAlign=top;labelBackgroundColor=none;fillColor=#A8DADC;strokeColor=#457B9D;fontColor=#1D3557;fontFamily=fira code;fontSource=https%3A%2F%2Ffonts.googleapis.com%2Fcss%3Ffamily%3Dfira%2Bcode;" parent="Z47dNayCgZMBNh-aiT91-101" connectable="0" vertex="1">
          <mxGeometry x="1" relative="1" as="geometry" />
        </mxCell>
        <mxCell id="Z47dNayCgZMBNh-aiT91-106" value="" style="group" parent="1" vertex="1" connectable="0">
          <mxGeometry x="397.0037113402062" y="270" width="199.99628865979378" height="20" as="geometry" />
        </mxCell>
        <mxCell id="Z47dNayCgZMBNh-aiT91-107" value="" style="endArrow=circle;html=1;rounded=1;align=center;verticalAlign=top;endFill=1;labelBackgroundColor=none;endSize=6;startArrow=none;startFill=0;fontColor=#1D3557;strokeColor=#666666;fillColor=#f5f5f5;strokeWidth=1;startSize=7;shadow=1;fontFamily=fira code;fontSource=https%3A%2F%2Ffonts.googleapis.com%2Fcss%3Ffamily%3Dfira%2Bcode;exitX=0;exitY=0.5;exitDx=0;exitDy=0;" parent="Z47dNayCgZMBNh-aiT91-106" source="Z47dNayCgZMBNh-aiT91-71" edge="1">
          <mxGeometry relative="1" as="geometry">
            <mxPoint x="199.99628865979378" y="9.5" as="sourcePoint" />
            <mxPoint x="59.99628865979378" y="17" as="targetPoint" />
            <Array as="points" />
          </mxGeometry>
        </mxCell>
        <mxCell id="Z47dNayCgZMBNh-aiT91-108" value="&lt;div style=&quot;font-size: 14px&quot;&gt;inv_id&lt;/div&gt;" style="text;html=1;strokeColor=none;fillColor=none;align=center;verticalAlign=middle;whiteSpace=wrap;rounded=0;sketch=0;fontColor=#1D3557;fontStyle=1;fontSize=14;fontFamily=fira code;fontSource=https%3A%2F%2Ffonts.googleapis.com%2Fcss%3Ffamily%3Dfira%2Bcode;" parent="Z47dNayCgZMBNh-aiT91-106" vertex="1">
          <mxGeometry x="9" y="7" width="35.876288659793815" height="20" as="geometry" />
        </mxCell>
        <mxCell id="Z47dNayCgZMBNh-aiT91-26" value="" style="endArrow=circle;html=1;rounded=1;align=center;verticalAlign=top;endFill=1;labelBackgroundColor=none;endSize=6;startArrow=none;startFill=0;fontColor=#1D3557;strokeColor=#666666;fillColor=#f5f5f5;strokeWidth=1;startSize=7;shadow=1;exitX=0.85;exitY=1;exitDx=0;exitDy=0;exitPerimeter=0;fontFamily=fira code;fontSource=https%3A%2F%2Ffonts.googleapis.com%2Fcss%3Ffamily%3Dfira%2Bcode;" parent="1" source="Z47dNayCgZMBNh-aiT91-14" edge="1">
          <mxGeometry x="497" y="380" as="geometry">
            <mxPoint x="617" y="583" as="sourcePoint" />
            <mxPoint x="747" y="600" as="targetPoint" />
            <Array as="points">
              <mxPoint x="667" y="600" />
            </Array>
          </mxGeometry>
        </mxCell>
        <mxCell id="Z47dNayCgZMBNh-aiT91-83" value="" style="group" parent="1" vertex="1" connectable="0">
          <mxGeometry x="537" y="490" width="267" height="122" as="geometry" />
        </mxCell>
        <mxCell id="Z47dNayCgZMBNh-aiT91-14" value="&lt;div&gt;&lt;font style=&quot;font-size: 14px&quot;&gt;Product&lt;/font&gt;&lt;/div&gt;" style="rounded=0;whiteSpace=wrap;html=1;sketch=0;fontColor=#1D3557;strokeColor=#457B9D;fillColor=#A8DADC;fontStyle=1;fontFamily=fira code;fontSource=https%3A%2F%2Ffonts.googleapis.com%2Fcss%3Ffamily%3Dfira%2Bcode;" parent="Z47dNayCgZMBNh-aiT91-83" vertex="1">
          <mxGeometry y="10" width="130" height="73" as="geometry" />
        </mxCell>
        <mxCell id="Z47dNayCgZMBNh-aiT91-41" value="" style="group" parent="Z47dNayCgZMBNh-aiT91-83" vertex="1" connectable="0">
          <mxGeometry x="210" y="20" width="57" height="20" as="geometry" />
        </mxCell>
        <mxCell id="Z47dNayCgZMBNh-aiT91-24" value="" style="endArrow=circle;html=1;rounded=1;align=center;verticalAlign=top;endFill=1;labelBackgroundColor=none;endSize=6;startArrow=none;startFill=0;fontColor=#1D3557;strokeColor=#666666;fillColor=#f5f5f5;strokeWidth=1;startSize=7;shadow=1;exitX=1;exitY=0.25;exitDx=0;exitDy=0;fontFamily=fira code;fontSource=https%3A%2F%2Ffonts.googleapis.com%2Fcss%3Ffamily%3Dfira%2Bcode;" parent="Z47dNayCgZMBNh-aiT91-41" source="Z47dNayCgZMBNh-aiT91-14" edge="1">
          <mxGeometry relative="1" as="geometry">
            <mxPoint x="-80" y="11" as="sourcePoint" />
            <mxPoint y="8" as="targetPoint" />
            <Array as="points" />
          </mxGeometry>
        </mxCell>
        <mxCell id="Z47dNayCgZMBNh-aiT91-40" value="&lt;div style=&quot;font-size: 14px;&quot;&gt;prod_id&lt;/div&gt;" style="text;html=1;strokeColor=none;fillColor=none;align=center;verticalAlign=middle;whiteSpace=wrap;rounded=0;sketch=0;fontColor=#1D3557;fontStyle=1;fontSize=14;fontFamily=fira code;fontSource=https%3A%2F%2Ffonts.googleapis.com%2Fcss%3Ffamily%3Dfira%2Bcode;" parent="Z47dNayCgZMBNh-aiT91-41" vertex="1">
          <mxGeometry x="17" width="40" height="20" as="geometry" />
        </mxCell>
        <mxCell id="Z47dNayCgZMBNh-aiT91-54" value="" style="group" parent="Z47dNayCgZMBNh-aiT91-83" vertex="1" connectable="0">
          <mxGeometry x="200" y="40" width="67" height="20" as="geometry" />
        </mxCell>
        <mxCell id="Z47dNayCgZMBNh-aiT91-22" value="" style="endArrow=circle;html=1;rounded=1;align=center;verticalAlign=top;endFill=1;labelBackgroundColor=none;endSize=6;startArrow=none;startFill=0;fontColor=#1D3557;strokeColor=#666666;fillColor=#f5f5f5;strokeWidth=1;startSize=7;shadow=1;sketch=0;fontFamily=fira code;fontSource=https%3A%2F%2Ffonts.googleapis.com%2Fcss%3Ffamily%3Dfira%2Bcode;" parent="Z47dNayCgZMBNh-aiT91-54" edge="1">
          <mxGeometry relative="1" as="geometry">
            <mxPoint x="-69" y="10" as="sourcePoint" />
            <mxPoint x="10" y="10" as="targetPoint" />
            <Array as="points">
              <mxPoint y="10" />
            </Array>
          </mxGeometry>
        </mxCell>
        <mxCell id="Z47dNayCgZMBNh-aiT91-45" value="&lt;div style=&quot;font-size: 14px;&quot;&gt;prod_id&lt;/div&gt;" style="text;html=1;strokeColor=none;fillColor=none;align=center;verticalAlign=middle;whiteSpace=wrap;rounded=0;sketch=0;fontColor=#1D3557;fontStyle=1;fontSize=14;fontFamily=fira code;fontSource=https%3A%2F%2Ffonts.googleapis.com%2Fcss%3Ffamily%3Dfira%2Bcode;" parent="Z47dNayCgZMBNh-aiT91-54" vertex="1">
          <mxGeometry x="27" width="40" height="20" as="geometry" />
        </mxCell>
        <mxCell id="Z47dNayCgZMBNh-aiT91-55" value="" style="group" parent="Z47dNayCgZMBNh-aiT91-83" vertex="1" connectable="0">
          <mxGeometry x="180" y="69" width="87" height="20" as="geometry" />
        </mxCell>
        <mxCell id="Z47dNayCgZMBNh-aiT91-23" value="" style="endArrow=circle;html=1;rounded=1;align=center;verticalAlign=top;endFill=1;labelBackgroundColor=none;endSize=6;startArrow=none;startFill=0;fontColor=#1D3557;strokeColor=#666666;fillColor=#f5f5f5;strokeWidth=1;startSize=7;shadow=1;exitX=1.008;exitY=0.867;exitDx=0;exitDy=0;exitPerimeter=0;fontFamily=fira code;fontSource=https%3A%2F%2Ffonts.googleapis.com%2Fcss%3Ffamily%3Dfira%2Bcode;" parent="Z47dNayCgZMBNh-aiT91-55" source="Z47dNayCgZMBNh-aiT91-14" edge="1">
          <mxGeometry relative="1" as="geometry">
            <mxPoint x="-35.876288659793815" y="5.019999999999982" as="sourcePoint" />
            <mxPoint x="30" y="4" as="targetPoint" />
            <Array as="points" />
          </mxGeometry>
        </mxCell>
        <mxCell id="Z47dNayCgZMBNh-aiT91-46" value="&lt;div style=&quot;font-size: 14px;&quot;&gt;prod_id&lt;/div&gt;" style="text;html=1;strokeColor=none;fillColor=none;align=center;verticalAlign=middle;whiteSpace=wrap;rounded=0;sketch=0;fontColor=#1D3557;fontStyle=1;fontSize=14;fontFamily=fira code;fontSource=https%3A%2F%2Ffonts.googleapis.com%2Fcss%3Ffamily%3Dfira%2Bcode;" parent="Z47dNayCgZMBNh-aiT91-55" vertex="1">
          <mxGeometry x="50.123711340206185" y="-9" width="35.876288659793815" height="20" as="geometry" />
        </mxCell>
        <mxCell id="Z47dNayCgZMBNh-aiT91-56" value="" style="group" parent="Z47dNayCgZMBNh-aiT91-83" vertex="1" connectable="0">
          <mxGeometry x="140" y="92" width="127" height="30" as="geometry" />
        </mxCell>
        <mxCell id="Z47dNayCgZMBNh-aiT91-27" value="" style="endArrow=circle;html=1;rounded=1;align=center;verticalAlign=top;endFill=1;labelBackgroundColor=none;endSize=6;startArrow=none;startFill=0;fontColor=#1D3557;strokeColor=#666666;fillColor=#f5f5f5;strokeWidth=1;startSize=7;shadow=1;exitX=1;exitY=1;exitDx=0;exitDy=0;fontFamily=fira code;fontSource=https%3A%2F%2Ffonts.googleapis.com%2Fcss%3Ffamily%3Dfira%2Bcode;" parent="Z47dNayCgZMBNh-aiT91-56" source="Z47dNayCgZMBNh-aiT91-14" edge="1">
          <mxGeometry relative="1" as="geometry">
            <mxPoint x="-50" y="4.5" as="sourcePoint" />
            <mxPoint x="70" as="targetPoint" />
            <Array as="points">
              <mxPoint x="10" />
            </Array>
          </mxGeometry>
        </mxCell>
        <mxCell id="Z47dNayCgZMBNh-aiT91-47" value="&lt;div style=&quot;font-size: 14px;&quot;&gt;prod_id&lt;/div&gt;" style="text;html=1;strokeColor=none;fillColor=none;align=center;verticalAlign=middle;whiteSpace=wrap;rounded=0;sketch=0;fontColor=#1D3557;fontStyle=1;fontSize=14;fontFamily=fira code;fontSource=https%3A%2F%2Ffonts.googleapis.com%2Fcss%3Ffamily%3Dfira%2Bcode;" parent="Z47dNayCgZMBNh-aiT91-56" vertex="1">
          <mxGeometry x="87" y="-15" width="40" height="30" as="geometry" />
        </mxCell>
        <mxCell id="Z47dNayCgZMBNh-aiT91-48" value="&lt;div style=&quot;font-size: 14px;&quot;&gt;prod_id&lt;/div&gt;" style="text;html=1;strokeColor=none;fillColor=none;align=center;verticalAlign=middle;whiteSpace=wrap;rounded=0;sketch=0;fontColor=#1D3557;fontStyle=1;fontSize=14;fontFamily=fira code;fontSource=https%3A%2F%2Ffonts.googleapis.com%2Fcss%3Ffamily%3Dfira%2Bcode;" parent="Z47dNayCgZMBNh-aiT91-56" vertex="1">
          <mxGeometry x="87" y="9" width="40" height="20" as="geometry" />
        </mxCell>
        <mxCell id="Z47dNayCgZMBNh-aiT91-63" value="" style="group" parent="Z47dNayCgZMBNh-aiT91-83" vertex="1" connectable="0">
          <mxGeometry x="210" width="57" height="20" as="geometry" />
        </mxCell>
        <mxCell id="Z47dNayCgZMBNh-aiT91-28" value="" style="endArrow=circle;html=1;rounded=1;align=center;verticalAlign=top;endFill=1;labelBackgroundColor=none;endSize=6;startArrow=none;startFill=0;fontColor=#1D3557;strokeColor=#666666;fillColor=#f5f5f5;strokeWidth=1;startSize=7;shadow=1;exitX=1;exitY=0;exitDx=0;exitDy=0;fontFamily=fira code;fontSource=https%3A%2F%2Ffonts.googleapis.com%2Fcss%3Ffamily%3Dfira%2Bcode;" parent="Z47dNayCgZMBNh-aiT91-63" source="Z47dNayCgZMBNh-aiT91-14" edge="1">
          <mxGeometry relative="1" as="geometry">
            <mxPoint x="-110" y="113" as="sourcePoint" />
            <mxPoint y="10" as="targetPoint" />
            <Array as="points" />
          </mxGeometry>
        </mxCell>
        <mxCell id="Z47dNayCgZMBNh-aiT91-39" value="&lt;div style=&quot;font-size: 14px;&quot;&gt;prod_id&lt;/div&gt;" style="text;html=1;strokeColor=none;fillColor=none;align=center;verticalAlign=middle;whiteSpace=wrap;rounded=0;sketch=0;fontColor=#1D3557;fontStyle=1;fontSize=14;fontFamily=fira code;fontSource=https%3A%2F%2Ffonts.googleapis.com%2Fcss%3Ffamily%3Dfira%2Bcode;" parent="Z47dNayCgZMBNh-aiT91-63" vertex="1">
          <mxGeometry x="17" width="40" height="20" as="geometry" />
        </mxCell>
        <mxCell id="Z47dNayCgZMBNh-aiT91-109" value="&lt;font style=&quot;font-size: 12px&quot;&gt;&lt;b&gt;Has&lt;/b&gt;&lt;/font&gt;" style="rhombus;whiteSpace=wrap;html=1;fillColor=#A8DADC;strokeColor=#457B9D;fontColor=#1D3557;fontFamily=fira code;fontSource=https%3A%2F%2Ffonts.googleapis.com%2Fcss%3Ffamily%3Dfira%2Bcode;" parent="1" vertex="1">
          <mxGeometry x="549.5" y="394" width="105" height="49" as="geometry" />
        </mxCell>
        <mxCell id="Z47dNayCgZMBNh-aiT91-110" value="" style="endArrow=none;html=1;align=center;verticalAlign=top;endFill=0;labelBackgroundColor=none;strokeColor=#457B9D;fontColor=#1D3557;fontFamily=fira code;fontSource=https%3A%2F%2Ffonts.googleapis.com%2Fcss%3Ffamily%3Dfira%2Bcode;exitX=0.5;exitY=0;exitDx=0;exitDy=0;entryX=0.5;entryY=1;entryDx=0;entryDy=0;" parent="1" source="Z47dNayCgZMBNh-aiT91-109" target="Z47dNayCgZMBNh-aiT91-71" edge="1">
          <mxGeometry relative="1" as="geometry">
            <mxPoint x="647" y="379" as="sourcePoint" />
            <mxPoint x="777" y="388" as="targetPoint" />
          </mxGeometry>
        </mxCell>
        <mxCell id="Z47dNayCgZMBNh-aiT91-111" value="" style="resizable=0;html=1;align=left;verticalAlign=bottom;labelBackgroundColor=none;fillColor=#A8DADC;strokeColor=#457B9D;fontColor=#1D3557;fontFamily=fira code;fontSource=https%3A%2F%2Ffonts.googleapis.com%2Fcss%3Ffamily%3Dfira%2Bcode;" parent="Z47dNayCgZMBNh-aiT91-110" connectable="0" vertex="1">
          <mxGeometry x="-1" relative="1" as="geometry" />
        </mxCell>
        <mxCell id="Z47dNayCgZMBNh-aiT91-113" value="" style="resizable=0;html=1;align=right;verticalAlign=bottom;labelBackgroundColor=none;fillColor=#A8DADC;strokeColor=#457B9D;fontColor=#1D3557;fontFamily=fira code;fontSource=https%3A%2F%2Ffonts.googleapis.com%2Fcss%3Ffamily%3Dfira%2Bcode;" parent="Z47dNayCgZMBNh-aiT91-110" connectable="0" vertex="1">
          <mxGeometry x="1" relative="1" as="geometry" />
        </mxCell>
        <mxCell id="Z47dNayCgZMBNh-aiT91-114" value="1..1" style="resizable=0;html=1;align=right;verticalAlign=top;labelBackgroundColor=none;fillColor=#A8DADC;strokeColor=#457B9D;fontColor=#1D3557;fontFamily=fira code;fontSource=https%3A%2F%2Ffonts.googleapis.com%2Fcss%3Ffamily%3Dfira%2Bcode;" parent="Z47dNayCgZMBNh-aiT91-110" connectable="0" vertex="1">
          <mxGeometry x="1" relative="1" as="geometry" />
        </mxCell>
        <mxCell id="Z47dNayCgZMBNh-aiT91-115" value="" style="endArrow=none;html=1;align=center;verticalAlign=top;endFill=0;labelBackgroundColor=none;strokeColor=#457B9D;fontColor=#1D3557;fontFamily=fira code;fontSource=https%3A%2F%2Ffonts.googleapis.com%2Fcss%3Ffamily%3Dfira%2Bcode;entryX=0.5;entryY=1;entryDx=0;entryDy=0;exitX=0.5;exitY=0;exitDx=0;exitDy=0;" parent="1" source="Z47dNayCgZMBNh-aiT91-14" target="Z47dNayCgZMBNh-aiT91-109" edge="1">
          <mxGeometry relative="1" as="geometry">
            <mxPoint x="389.5" y="480" as="sourcePoint" />
            <mxPoint x="549.5" y="480" as="targetPoint" />
          </mxGeometry>
        </mxCell>
        <mxCell id="Z47dNayCgZMBNh-aiT91-116" value="&lt;div&gt;1..1&lt;/div&gt;" style="resizable=0;html=1;align=left;verticalAlign=bottom;labelBackgroundColor=none;fillColor=#A8DADC;strokeColor=#457B9D;fontColor=#1D3557;fontFamily=fira code;fontSource=https%3A%2F%2Ffonts.googleapis.com%2Fcss%3Ffamily%3Dfira%2Bcode;" parent="Z47dNayCgZMBNh-aiT91-115" connectable="0" vertex="1">
          <mxGeometry x="-1" relative="1" as="geometry" />
        </mxCell>
        <mxCell id="Z47dNayCgZMBNh-aiT91-118" value="" style="resizable=0;html=1;align=right;verticalAlign=bottom;labelBackgroundColor=none;fillColor=#A8DADC;strokeColor=#457B9D;fontColor=#1D3557;fontFamily=fira code;fontSource=https%3A%2F%2Ffonts.googleapis.com%2Fcss%3Ffamily%3Dfira%2Bcode;" parent="Z47dNayCgZMBNh-aiT91-115" connectable="0" vertex="1">
          <mxGeometry x="1" relative="1" as="geometry" />
        </mxCell>
        <mxCell id="Z47dNayCgZMBNh-aiT91-119" value="" style="group" parent="1" vertex="1" connectable="0">
          <mxGeometry x="377.0037113402062" y="210" width="199.99628865979378" height="20" as="geometry" />
        </mxCell>
        <mxCell id="Z47dNayCgZMBNh-aiT91-120" value="" style="endArrow=circle;html=1;rounded=1;align=center;verticalAlign=top;endFill=1;labelBackgroundColor=none;endSize=6;startArrow=none;startFill=0;fontColor=#1D3557;strokeColor=#666666;fillColor=#f5f5f5;strokeWidth=1;startSize=7;shadow=1;fontFamily=fira code;fontSource=https%3A%2F%2Ffonts.googleapis.com%2Fcss%3Ffamily%3Dfira%2Bcode;exitX=0.5;exitY=0;exitDx=0;exitDy=0;" parent="Z47dNayCgZMBNh-aiT91-119" source="Z47dNayCgZMBNh-aiT91-71" edge="1">
          <mxGeometry relative="1" as="geometry">
            <mxPoint x="199.99628865979378" y="9.5" as="sourcePoint" />
            <mxPoint x="79.99628865979378" y="10" as="targetPoint" />
            <Array as="points">
              <mxPoint x="189.99628865979378" y="10" />
            </Array>
          </mxGeometry>
        </mxCell>
        <mxCell id="Z47dNayCgZMBNh-aiT91-121" value="&lt;div style=&quot;font-size: 14px&quot;&gt;inv_id&lt;/div&gt;" style="text;html=1;strokeColor=none;fillColor=none;align=center;verticalAlign=middle;whiteSpace=wrap;rounded=0;sketch=0;fontColor=#1D3557;fontStyle=1;fontSize=14;fontFamily=fira code;fontSource=https%3A%2F%2Ffonts.googleapis.com%2Fcss%3Ffamily%3Dfira%2Bcode;" parent="Z47dNayCgZMBNh-aiT91-119" vertex="1">
          <mxGeometry x="30" width="35.876288659793815" height="20" as="geometry" />
        </mxCell>
        <mxCell id="Z47dNayCgZMBNh-aiT91-124" value="" style="group" parent="1" vertex="1" connectable="0">
          <mxGeometry x="327.0037113402062" y="250" width="199.99628865979378" height="20" as="geometry" />
        </mxCell>
        <mxCell id="Z47dNayCgZMBNh-aiT91-125" value="" style="endArrow=circle;html=1;rounded=1;align=center;verticalAlign=top;endFill=1;labelBackgroundColor=none;endSize=6;startArrow=none;startFill=0;fontColor=#1D3557;strokeColor=#666666;fillColor=#f5f5f5;strokeWidth=1;startSize=7;shadow=1;fontFamily=fira code;fontSource=https%3A%2F%2Ffonts.googleapis.com%2Fcss%3Ffamily%3Dfira%2Bcode;exitX=0;exitY=0.25;exitDx=0;exitDy=0;" parent="Z47dNayCgZMBNh-aiT91-124" source="Z47dNayCgZMBNh-aiT91-71" edge="1">
          <mxGeometry relative="1" as="geometry">
            <mxPoint x="199.99628865979378" y="9.5" as="sourcePoint" />
            <mxPoint x="129.99628865979378" y="18" as="targetPoint" />
            <Array as="points" />
          </mxGeometry>
        </mxCell>
        <mxCell id="Z47dNayCgZMBNh-aiT91-126" value="&lt;div style=&quot;font-size: 14px;&quot;&gt;prod_id&lt;/div&gt;" style="text;html=1;strokeColor=none;fillColor=none;align=center;verticalAlign=middle;whiteSpace=wrap;rounded=0;sketch=0;fontColor=#1D3557;fontStyle=1;fontSize=14;fontFamily=fira code;fontSource=https%3A%2F%2Ffonts.googleapis.com%2Fcss%3Ffamily%3Dfira%2Bcode;" parent="Z47dNayCgZMBNh-aiT91-124" vertex="1">
          <mxGeometry x="76" y="10" width="35.876288659793815" height="20" as="geometry" />
        </mxCell>
        <mxCell id="Z47dNayCgZMBNh-aiT91-130" value="" style="group" parent="1" vertex="1" connectable="0">
          <mxGeometry x="396.0037113402062" y="290" width="199.99628865979378" height="20" as="geometry" />
        </mxCell>
        <mxCell id="Z47dNayCgZMBNh-aiT91-132" value="&lt;div style=&quot;font-size: 14px&quot;&gt;inv_col&lt;/div&gt;" style="text;html=1;strokeColor=none;fillColor=none;align=center;verticalAlign=middle;whiteSpace=wrap;rounded=0;sketch=0;fontColor=#1D3557;fontStyle=1;fontSize=14;fontFamily=fira code;fontSource=https%3A%2F%2Ffonts.googleapis.com%2Fcss%3Ffamily%3Dfira%2Bcode;" parent="Z47dNayCgZMBNh-aiT91-130" vertex="1">
          <mxGeometry x="9" y="7" width="35.876288659793815" height="20" as="geometry" />
        </mxCell>
        <mxCell id="Z47dNayCgZMBNh-aiT91-131" value="" style="endArrow=circle;html=1;rounded=1;align=center;verticalAlign=top;endFill=1;labelBackgroundColor=none;endSize=6;startArrow=none;startFill=0;fontColor=#1D3557;strokeColor=#666666;fillColor=#f5f5f5;strokeWidth=1;startSize=7;shadow=1;fontFamily=fira code;fontSource=https%3A%2F%2Ffonts.googleapis.com%2Fcss%3Ffamily%3Dfira%2Bcode;exitX=0;exitY=0.75;exitDx=0;exitDy=0;" parent="1" source="Z47dNayCgZMBNh-aiT91-71" edge="1">
          <mxGeometry relative="1" as="geometry">
            <mxPoint x="517" y="310" as="sourcePoint" />
            <mxPoint x="457" y="305" as="targetPoint" />
            <Array as="points" />
          </mxGeometry>
        </mxCell>
        <mxCell id="Z47dNayCgZMBNh-aiT91-133" value="&lt;h1&gt;Entity Relationship Diagram&lt;br&gt;&lt;/h1&gt;&lt;p&gt;This is a template used for educational purposes.&lt;br&gt;&lt;/p&gt;" style="text;html=1;strokeColor=none;fillColor=none;spacing=5;spacingTop=-20;whiteSpace=wrap;overflow=hidden;rounded=0;sketch=0;fontFamily=fira code;fontSource=https%3A%2F%2Ffonts.googleapis.com%2Fcss%3Ffamily%3Dfira%2Bcode;fontSize=14;fontColor=#1D3557;align=left;" parent="1" vertex="1">
          <mxGeometry x="77" y="50" width="645.5" height="100" as="geometry" />
        </mxCell>
      </root>
    </mxGraphModel>
  </diagram>
</mxfile>
